<mxfile host="app.diagrams.net" modified="2022-09-26T17:32:23.670Z" agent="5.0 (Windows NT 10.0; Win64; x64) AppleWebKit/537.36 (KHTML, like Gecko) Chrome/105.0.0.0 Safari/537.36" etag="AWiVYoFxc5m_7tdhpAnX" version="20.3.6" type="github">
  <diagram id="R4JSMHGHhfswcs7ufFXu" name="Page-1">
    <mxGraphModel dx="1422" dy="794" grid="1" gridSize="10" guides="1" tooltips="1" connect="1" arrows="1" fold="1" page="1" pageScale="1" pageWidth="1169" pageHeight="827" math="0" shadow="0">
      <root>
        <mxCell id="0" />
        <mxCell id="1" parent="0" />
        <mxCell id="GPHthpxkc4Tcekde1ESW-1" value="" style="swimlane;startSize=0;" vertex="1" parent="1">
          <mxGeometry x="220" y="400" width="160" height="200" as="geometry" />
        </mxCell>
        <mxCell id="GPHthpxkc4Tcekde1ESW-2" value="PROXMOX N-1" style="rounded=0;whiteSpace=wrap;html=1;fillColor=#fa6800;strokeColor=#C73500;fontColor=#000000;" vertex="1" parent="GPHthpxkc4Tcekde1ESW-1">
          <mxGeometry width="160" height="60" as="geometry" />
        </mxCell>
        <mxCell id="GPHthpxkc4Tcekde1ESW-56" value="DB" style="sketch=0;pointerEvents=1;shadow=0;dashed=0;html=1;strokeColor=none;fillColor=#434445;aspect=fixed;labelPosition=center;verticalLabelPosition=bottom;verticalAlign=top;align=center;outlineConnect=0;shape=mxgraph.vvd.virtual_machine;opacity=40;" vertex="1" parent="GPHthpxkc4Tcekde1ESW-1">
          <mxGeometry x="10" y="70" width="50" height="50" as="geometry" />
        </mxCell>
        <mxCell id="GPHthpxkc4Tcekde1ESW-62" value="PBS-OVH" style="sketch=0;pointerEvents=1;shadow=0;dashed=0;html=1;strokeColor=none;fillColor=#434445;aspect=fixed;labelPosition=center;verticalLabelPosition=bottom;verticalAlign=top;align=center;outlineConnect=0;shape=mxgraph.vvd.storage;opacity=40;" vertex="1" parent="GPHthpxkc4Tcekde1ESW-1">
          <mxGeometry x="100" y="120" width="37.5" height="50" as="geometry" />
        </mxCell>
        <mxCell id="GPHthpxkc4Tcekde1ESW-6" value="" style="swimlane;startSize=0;" vertex="1" parent="1">
          <mxGeometry x="459" y="360" width="160" height="240" as="geometry" />
        </mxCell>
        <mxCell id="GPHthpxkc4Tcekde1ESW-7" value="PROXMOX N-2" style="rounded=0;whiteSpace=wrap;html=1;fillColor=#fa6800;fontColor=#000000;strokeColor=#C73500;" vertex="1" parent="GPHthpxkc4Tcekde1ESW-6">
          <mxGeometry width="160" height="60" as="geometry" />
        </mxCell>
        <mxCell id="GPHthpxkc4Tcekde1ESW-57" value="CRM" style="sketch=0;pointerEvents=1;shadow=0;dashed=0;html=1;strokeColor=none;fillColor=#434445;aspect=fixed;labelPosition=center;verticalLabelPosition=bottom;verticalAlign=top;align=center;outlineConnect=0;shape=mxgraph.vvd.virtual_machine;opacity=40;" vertex="1" parent="GPHthpxkc4Tcekde1ESW-6">
          <mxGeometry x="11" y="70" width="50" height="50" as="geometry" />
        </mxCell>
        <mxCell id="GPHthpxkc4Tcekde1ESW-58" value="PBS-OVH" style="sketch=0;pointerEvents=1;shadow=0;dashed=0;html=1;strokeColor=none;fillColor=#434445;aspect=fixed;labelPosition=center;verticalLabelPosition=bottom;verticalAlign=top;align=center;outlineConnect=0;shape=mxgraph.vvd.virtual_machine;opacity=40;" vertex="1" parent="GPHthpxkc4Tcekde1ESW-6">
          <mxGeometry x="91" y="70" width="50" height="50" as="geometry" />
        </mxCell>
        <mxCell id="GPHthpxkc4Tcekde1ESW-63" value="PBS-TOR" style="sketch=0;pointerEvents=1;shadow=0;dashed=0;html=1;strokeColor=none;fillColor=#434445;aspect=fixed;labelPosition=center;verticalLabelPosition=bottom;verticalAlign=top;align=center;outlineConnect=0;shape=mxgraph.vvd.storage;opacity=40;" vertex="1" parent="GPHthpxkc4Tcekde1ESW-6">
          <mxGeometry x="97.25" y="160" width="37.5" height="50" as="geometry" />
        </mxCell>
        <mxCell id="GPHthpxkc4Tcekde1ESW-12" value="" style="swimlane;startSize=0;" vertex="1" parent="1">
          <mxGeometry x="701" y="400" width="160" height="230" as="geometry" />
        </mxCell>
        <mxCell id="GPHthpxkc4Tcekde1ESW-13" value="PROXMOX N-3" style="rounded=0;whiteSpace=wrap;html=1;fillColor=#fa6800;fontColor=#000000;strokeColor=#C73500;" vertex="1" parent="GPHthpxkc4Tcekde1ESW-12">
          <mxGeometry width="160" height="60" as="geometry" />
        </mxCell>
        <mxCell id="GPHthpxkc4Tcekde1ESW-59" value="PBS-TOR" style="sketch=0;pointerEvents=1;shadow=0;dashed=0;html=1;strokeColor=none;fillColor=#434445;aspect=fixed;labelPosition=center;verticalLabelPosition=bottom;verticalAlign=top;align=center;outlineConnect=0;shape=mxgraph.vvd.virtual_machine;opacity=40;" vertex="1" parent="GPHthpxkc4Tcekde1ESW-12">
          <mxGeometry x="9" y="70" width="50" height="50" as="geometry" />
        </mxCell>
        <mxCell id="GPHthpxkc4Tcekde1ESW-17" value="MT-R" style="rounded=0;whiteSpace=wrap;html=1;shadow=0;opacity=20;fillColor=#b0e3e6;strokeColor=#0e8088;" vertex="1" parent="1">
          <mxGeometry x="250" y="190" width="190" height="35" as="geometry" />
        </mxCell>
        <mxCell id="GPHthpxkc4Tcekde1ESW-32" value="MT-SW-VLAN99" style="rounded=0;whiteSpace=wrap;html=1;opacity=20;fillColor=#b0e3e6;strokeColor=#0e8088;" vertex="1" parent="1">
          <mxGeometry x="444" y="260" width="190" height="35" as="geometry" />
        </mxCell>
        <mxCell id="GPHthpxkc4Tcekde1ESW-34" value="" style="endArrow=none;html=1;rounded=0;entryX=0.25;entryY=1;entryDx=0;entryDy=0;exitX=0.5;exitY=0;exitDx=0;exitDy=0;opacity=20;" edge="1" parent="1" source="GPHthpxkc4Tcekde1ESW-2" target="GPHthpxkc4Tcekde1ESW-32">
          <mxGeometry width="50" height="50" relative="1" as="geometry">
            <mxPoint x="530" y="530" as="sourcePoint" />
            <mxPoint x="580" y="480" as="targetPoint" />
          </mxGeometry>
        </mxCell>
        <mxCell id="GPHthpxkc4Tcekde1ESW-75" value="VLAN99" style="edgeLabel;html=1;align=center;verticalAlign=middle;resizable=0;points=[];fontSize=12;" vertex="1" connectable="0" parent="GPHthpxkc4Tcekde1ESW-34">
          <mxGeometry x="0.1153" y="2" relative="1" as="geometry">
            <mxPoint as="offset" />
          </mxGeometry>
        </mxCell>
        <mxCell id="GPHthpxkc4Tcekde1ESW-35" value="" style="endArrow=none;html=1;rounded=0;entryX=0.5;entryY=1;entryDx=0;entryDy=0;exitX=0.5;exitY=0;exitDx=0;exitDy=0;opacity=20;" edge="1" parent="1" source="GPHthpxkc4Tcekde1ESW-7" target="GPHthpxkc4Tcekde1ESW-32">
          <mxGeometry width="50" height="50" relative="1" as="geometry">
            <mxPoint x="530" y="530" as="sourcePoint" />
            <mxPoint x="580" y="480" as="targetPoint" />
          </mxGeometry>
        </mxCell>
        <mxCell id="GPHthpxkc4Tcekde1ESW-78" value="VLAN99" style="edgeLabel;html=1;align=center;verticalAlign=middle;resizable=0;points=[];fontSize=12;" vertex="1" connectable="0" parent="GPHthpxkc4Tcekde1ESW-35">
          <mxGeometry x="0.3231" relative="1" as="geometry">
            <mxPoint y="13" as="offset" />
          </mxGeometry>
        </mxCell>
        <mxCell id="GPHthpxkc4Tcekde1ESW-37" value="STORAGE" style="rounded=0;whiteSpace=wrap;html=1;fillColor=#cdeb8b;strokeColor=#36393d;" vertex="1" parent="1">
          <mxGeometry x="800" y="180" width="119" height="30" as="geometry" />
        </mxCell>
        <mxCell id="GPHthpxkc4Tcekde1ESW-68" style="edgeStyle=orthogonalEdgeStyle;rounded=0;orthogonalLoop=1;jettySize=auto;html=1;exitX=1;exitY=0.5;exitDx=0;exitDy=0;entryX=0.55;entryY=0.95;entryDx=0;entryDy=0;entryPerimeter=0;fontSize=21;opacity=20;" edge="1" parent="1" source="GPHthpxkc4Tcekde1ESW-38" target="GPHthpxkc4Tcekde1ESW-67">
          <mxGeometry relative="1" as="geometry" />
        </mxCell>
        <mxCell id="GPHthpxkc4Tcekde1ESW-38" value="HDD" style="rounded=0;whiteSpace=wrap;html=1;fillColor=#cdeb8b;strokeColor=#36393d;opacity=40;" vertex="1" parent="1">
          <mxGeometry x="800" y="210" width="119" height="60" as="geometry" />
        </mxCell>
        <mxCell id="GPHthpxkc4Tcekde1ESW-40" value="" style="endArrow=none;html=1;rounded=0;entryX=0;entryY=0.25;entryDx=0;entryDy=0;exitX=1;exitY=0.5;exitDx=0;exitDy=0;opacity=20;" edge="1" parent="1" source="GPHthpxkc4Tcekde1ESW-32" target="GPHthpxkc4Tcekde1ESW-38">
          <mxGeometry width="50" height="50" relative="1" as="geometry">
            <mxPoint x="530" y="530" as="sourcePoint" />
            <mxPoint x="580" y="480" as="targetPoint" />
          </mxGeometry>
        </mxCell>
        <mxCell id="GPHthpxkc4Tcekde1ESW-76" value="VLAN99" style="edgeLabel;html=1;align=center;verticalAlign=middle;resizable=0;points=[];fontSize=12;" vertex="1" connectable="0" parent="GPHthpxkc4Tcekde1ESW-40">
          <mxGeometry x="-0.1121" y="2" relative="1" as="geometry">
            <mxPoint as="offset" />
          </mxGeometry>
        </mxCell>
        <mxCell id="GPHthpxkc4Tcekde1ESW-45" value="" style="endArrow=none;html=1;rounded=0;entryX=0.5;entryY=1;entryDx=0;entryDy=0;exitX=0;exitY=0.5;exitDx=0;exitDy=0;opacity=20;" edge="1" parent="1" source="GPHthpxkc4Tcekde1ESW-32" target="GPHthpxkc4Tcekde1ESW-17">
          <mxGeometry width="50" height="50" relative="1" as="geometry">
            <mxPoint x="480" y="500" as="sourcePoint" />
            <mxPoint x="530" y="450" as="targetPoint" />
          </mxGeometry>
        </mxCell>
        <mxCell id="GPHthpxkc4Tcekde1ESW-74" value="VLAN99" style="edgeLabel;html=1;align=center;verticalAlign=middle;resizable=0;points=[];fontSize=12;" vertex="1" connectable="0" parent="GPHthpxkc4Tcekde1ESW-45">
          <mxGeometry x="0.3459" y="-1" relative="1" as="geometry">
            <mxPoint x="12" y="9" as="offset" />
          </mxGeometry>
        </mxCell>
        <mxCell id="GPHthpxkc4Tcekde1ESW-48" value="" style="endArrow=none;html=1;rounded=0;entryX=0.75;entryY=1;entryDx=0;entryDy=0;exitX=0.5;exitY=0;exitDx=0;exitDy=0;opacity=20;" edge="1" parent="1" source="GPHthpxkc4Tcekde1ESW-13" target="GPHthpxkc4Tcekde1ESW-32">
          <mxGeometry width="50" height="50" relative="1" as="geometry">
            <mxPoint x="780" y="410" as="sourcePoint" />
            <mxPoint x="596.5" y="305" as="targetPoint" />
          </mxGeometry>
        </mxCell>
        <mxCell id="GPHthpxkc4Tcekde1ESW-77" value="VLAN99" style="edgeLabel;html=1;align=center;verticalAlign=middle;resizable=0;points=[];fontSize=12;" vertex="1" connectable="0" parent="GPHthpxkc4Tcekde1ESW-48">
          <mxGeometry x="0.2998" y="-1" relative="1" as="geometry">
            <mxPoint x="35" y="19" as="offset" />
          </mxGeometry>
        </mxCell>
        <mxCell id="GPHthpxkc4Tcekde1ESW-51" value="10.50.99.111&lt;br&gt;root:Transat15" style="text;html=1;align=center;verticalAlign=middle;resizable=0;points=[];autosize=1;strokeColor=none;fillColor=none;" vertex="1" parent="1">
          <mxGeometry x="250" y="595" width="100" height="40" as="geometry" />
        </mxCell>
        <mxCell id="GPHthpxkc4Tcekde1ESW-52" value="10.50.99.112&lt;br&gt;root:Transat15" style="text;html=1;align=center;verticalAlign=middle;resizable=0;points=[];autosize=1;strokeColor=none;fillColor=none;" vertex="1" parent="1">
          <mxGeometry x="489" y="595" width="100" height="40" as="geometry" />
        </mxCell>
        <mxCell id="GPHthpxkc4Tcekde1ESW-53" value="10.50.99.113&lt;br&gt;root:Transat15" style="text;html=1;align=center;verticalAlign=middle;resizable=0;points=[];autosize=1;strokeColor=none;fillColor=none;" vertex="1" parent="1">
          <mxGeometry x="731" y="625" width="100" height="40" as="geometry" />
        </mxCell>
        <mxCell id="GPHthpxkc4Tcekde1ESW-54" value="10.50.99.110&lt;br&gt;root:Transat15" style="text;html=1;align=center;verticalAlign=middle;resizable=0;points=[];autosize=1;strokeColor=none;fillColor=none;" vertex="1" parent="1">
          <mxGeometry x="809.5" y="265" width="100" height="40" as="geometry" />
        </mxCell>
        <mxCell id="GPHthpxkc4Tcekde1ESW-65" value="&lt;font style=&quot;font-size: 21px;&quot;&gt;DS Recovry LAB&lt;/font&gt;" style="text;html=1;align=center;verticalAlign=middle;resizable=0;points=[];autosize=1;strokeColor=none;fillColor=none;" vertex="1" parent="1">
          <mxGeometry x="40" y="60" width="180" height="40" as="geometry" />
        </mxCell>
        <mxCell id="GPHthpxkc4Tcekde1ESW-67" value="AWS S3" style="ellipse;shape=cloud;whiteSpace=wrap;html=1;fontSize=21;opacity=40;" vertex="1" parent="1">
          <mxGeometry x="940" y="60" width="170" height="80" as="geometry" />
        </mxCell>
        <mxCell id="GPHthpxkc4Tcekde1ESW-69" value="VCenter LAB&lt;br&gt;https://172.16.0.30/ui&lt;br&gt;administrator@vsphere.local&lt;br&gt;Transat05**" style="text;html=1;align=center;verticalAlign=middle;resizable=0;points=[];autosize=1;strokeColor=none;fillColor=none;fontSize=21;" vertex="1" parent="1">
          <mxGeometry x="40" y="690" width="290" height="110" as="geometry" />
        </mxCell>
        <mxCell id="GPHthpxkc4Tcekde1ESW-80" style="edgeStyle=orthogonalEdgeStyle;rounded=0;orthogonalLoop=1;jettySize=auto;html=1;exitX=0.5;exitY=1;exitDx=0;exitDy=0;exitPerimeter=0;entryX=0.492;entryY=0.113;entryDx=0;entryDy=0;entryPerimeter=0;fontSize=12;opacity=20;" edge="1" parent="1" source="GPHthpxkc4Tcekde1ESW-71" target="GPHthpxkc4Tcekde1ESW-79">
          <mxGeometry relative="1" as="geometry">
            <Array as="points">
              <mxPoint x="59" y="230" />
            </Array>
          </mxGeometry>
        </mxCell>
        <mxCell id="GPHthpxkc4Tcekde1ESW-81" value="38.87.0.0/19" style="edgeLabel;html=1;align=center;verticalAlign=middle;resizable=0;points=[];fontSize=12;" vertex="1" connectable="0" parent="GPHthpxkc4Tcekde1ESW-80">
          <mxGeometry x="-0.3558" relative="1" as="geometry">
            <mxPoint x="1" y="13" as="offset" />
          </mxGeometry>
        </mxCell>
        <mxCell id="GPHthpxkc4Tcekde1ESW-71" value="" style="shape=mxgraph.cisco.routers.router;sketch=0;html=1;pointerEvents=1;dashed=0;fillColor=#036897;strokeColor=#ffffff;strokeWidth=2;verticalLabelPosition=bottom;verticalAlign=top;align=center;outlineConnect=0;fontSize=21;opacity=40;" vertex="1" parent="1">
          <mxGeometry x="30" y="185.5" width="60" height="44" as="geometry" />
        </mxCell>
        <mxCell id="GPHthpxkc4Tcekde1ESW-72" value="" style="endArrow=none;html=1;rounded=0;fontSize=21;opacity=20;entryX=0;entryY=0.5;entryDx=0;entryDy=0;exitX=1;exitY=0.5;exitDx=0;exitDy=0;exitPerimeter=0;" edge="1" parent="1" source="GPHthpxkc4Tcekde1ESW-71" target="GPHthpxkc4Tcekde1ESW-17">
          <mxGeometry width="50" height="50" relative="1" as="geometry">
            <mxPoint x="460" y="600" as="sourcePoint" />
            <mxPoint x="510" y="550" as="targetPoint" />
          </mxGeometry>
        </mxCell>
        <mxCell id="GPHthpxkc4Tcekde1ESW-73" value="&lt;font style=&quot;font-size: 12px;&quot;&gt;192.168.0.0/24&lt;/font&gt;" style="text;html=1;align=center;verticalAlign=middle;resizable=0;points=[];autosize=1;strokeColor=none;fillColor=none;fontSize=21;" vertex="1" parent="1">
          <mxGeometry x="110" y="175" width="100" height="40" as="geometry" />
        </mxCell>
        <mxCell id="GPHthpxkc4Tcekde1ESW-79" value="Internet" style="ellipse;shape=cloud;whiteSpace=wrap;html=1;fontSize=12;opacity=40;" vertex="1" parent="1">
          <mxGeometry y="280" width="120" height="80" as="geometry" />
        </mxCell>
      </root>
    </mxGraphModel>
  </diagram>
</mxfile>
